<?xml version="1.0" standalone="no"?>
<!DOCTYPE svg PUBLIC "-//W3C//DTD SVG 20010904//EN"
 "http://www.w3.org/TR/2001/REC-SVG-20010904/DTD/svg10.dtd">
<svg version="1.0" xmlns="http://www.w3.org/2000/svg"
 width="564.000000pt" height="564.000000pt" viewBox="0 0 564.000000 564.000000"
 preserveAspectRatio="xMidYMid meet">
<metadata>
Created by potrace 1.14, written by Peter Selinger 2001-2017
</metadata>
<g transform="translate(0.000000,564.000000) scale(0.100000,-0.100000)"
fill="#000000" stroke="none">
<path d="M2809 5619 c-12 -25 -51 -98 -111 -209 -19 -36 -61 -114 -93 -175
-32 -60 -72 -137 -90 -170 -18 -33 -63 -118 -100 -190 -38 -71 -74 -138 -81
-149 -16 -24 -15 -27 103 -241 55 -100 116 -210 135 -245 20 -36 46 -83 58
-105 54 -94 102 -183 123 -225 12 -25 25 -46 30 -48 4 -2 7 -7 7 -12 0 -5 21
-46 48 -92 26 -46 56 -101 67 -123 11 -22 23 -41 28 -43 4 -2 7 -8 7 -13 0 -5
29 -61 65 -124 36 -63 65 -117 65 -120 0 -3 10 -22 23 -43 13 -20 45 -77 72
-127 26 -49 51 -94 55 -100 4 -5 26 -46 50 -90 24 -44 54 -99 67 -122 l25 -42
-48 -88 c-25 -48 -50 -92 -54 -98 -4 -5 -30 -54 -59 -107 -28 -54 -62 -117
-75 -140 -13 -24 -38 -70 -56 -103 -18 -33 -44 -80 -58 -105 -13 -25 -45 -83
-69 -129 -25 -46 -54 -98 -64 -115 -10 -17 -27 -48 -36 -68 -10 -21 -20 -38
-24 -38 -3 0 -18 24 -32 53 -15 28 -51 97 -80 152 -29 55 -84 159 -122 230
-38 72 -90 170 -117 219 -26 49 -48 95 -48 103 0 7 -4 13 -9 13 -5 0 -18 21
-30 48 -11 26 -42 85 -67 132 -78 145 -129 241 -194 365 -35 66 -77 147 -95
180 -18 33 -54 101 -80 150 -26 50 -67 126 -90 170 -23 44 -66 125 -95 180
-29 55 -69 132 -90 170 -39 73 -105 197 -185 350 -115 218 -139 263 -166 312
l-30 51 -142 -3 c-78 -3 -249 -7 -380 -9 -131 -3 -242 -8 -247 -11 -5 -3 -11
-1 -15 5 -3 6 -14 7 -23 2 -9 -4 -52 -7 -94 -7 -64 0 -78 -3 -78 -15 0 -9 4
-20 9 -25 8 -10 24 -38 114 -205 22 -41 49 -87 59 -102 11 -16 16 -28 12 -28
-3 0 -1 -6 5 -14 6 -7 22 -33 35 -57 49 -91 101 -189 176 -324 153 -278 354
-647 417 -765 25 -47 49 -89 53 -95 4 -5 31 -55 60 -110 29 -55 58 -107 63
-115 7 -12 1 -32 -19 -70 -15 -30 -30 -57 -33 -60 -4 -3 -14 -21 -24 -40 -59
-110 -111 -206 -117 -215 -4 -5 -23 -39 -42 -75 -20 -36 -46 -83 -58 -105
-106 -186 -220 -396 -220 -405 0 -6 -3 -10 -7 -10 -5 0 -17 -19 -28 -43 -11
-23 -29 -58 -41 -77 -11 -19 -49 -87 -84 -150 -35 -63 -74 -133 -86 -155 -13
-22 -35 -62 -49 -90 -24 -46 -75 -136 -162 -288 -18 -32 -33 -62 -33 -66 0 -4
226 -7 501 -7 l502 1 40 75 c22 41 56 104 75 140 87 164 115 216 123 225 5 5
9 17 9 27 0 10 4 18 8 18 4 0 15 15 23 32 15 32 76 148 156 296 22 41 43 75
47 75 7 2 75 -114 103 -173 16 -35 196 -356 205 -367 6 -7 7 -13 3 -13 -4 0
-3 -6 3 -12 11 -15 22 -34 139 -248 47 -85 97 -175 111 -200 14 -25 39 -72 57
-105 18 -33 44 -80 58 -105 21 -39 228 -417 276 -505 9 -16 21 -33 26 -37 6
-4 6 -8 2 -8 -5 0 1 -13 12 -29 12 -16 21 -35 21 -42 0 -20 13 -1 55 76 20 39
80 147 131 241 52 94 94 176 94 183 0 6 4 11 8 11 4 0 13 12 19 28 7 15 37 72
68 127 31 55 66 120 78 145 12 25 25 47 28 50 3 3 28 48 55 100 27 52 55 101
62 108 6 7 12 17 12 21 0 5 20 44 43 87 24 44 66 120 92 169 27 50 61 112 77
138 15 26 28 50 28 53 0 2 20 39 43 82 24 42 63 113 87 157 23 44 45 84 47 88
6 10 27 -25 159 -270 21 -38 48 -88 62 -113 23 -42 58 -107 123 -227 41 -76
53 -97 59 -103 3 -3 25 -45 50 -93 25 -49 49 -91 55 -95 5 -3 231 -7 502 -9
l492 -2 -29 54 c-17 30 -44 80 -61 111 -65 121 -81 150 -103 189 -12 22 -46
85 -75 139 -29 54 -74 138 -100 185 -26 47 -70 127 -96 176 -27 50 -65 121
-87 158 -21 38 -38 70 -38 72 0 2 -22 42 -50 89 -27 47 -46 86 -43 86 3 0 0 8
-8 18 -8 9 -19 26 -25 37 -6 11 -30 56 -54 100 -89 166 -114 211 -134 245 -11
19 -21 39 -22 45 -1 6 -13 27 -26 47 -53 78 -53 83 -1 182 27 49 66 123 88
165 23 42 60 112 84 156 75 137 97 177 144 265 25 47 64 119 86 160 23 41 53
100 68 130 16 30 31 57 34 60 3 3 36 64 74 135 37 72 76 144 85 160 9 17 34
62 55 100 94 175 110 204 146 270 21 39 38 75 39 80 1 6 7 17 14 25 12 14 25
43 26 56 0 5 -911 9 -977 5 -6 -1 -27 -31 -46 -68 -51 -101 -98 -186 -109
-200 -6 -7 -7 -13 -3 -13 4 0 3 -6 -3 -12 -5 -7 -33 -58 -63 -113 -143 -271
-173 -328 -221 -422 -41 -79 -55 -100 -64 -90 -11 11 -36 57 -119 212 -82 153
-120 225 -153 285 -41 75 -89 165 -142 265 -20 39 -54 102 -75 140 -83 152
-94 173 -135 250 -23 44 -57 107 -75 140 -18 33 -52 96 -75 140 -23 44 -61
113 -83 153 -75 138 -117 217 -141 266 -24 47 -24 48 -37 25z"/>
</g>
</svg>
